<svg width="180" height="180" viewBox="0 0 180 180" fill="none" xmlns="http://www.w3.org/2000/svg">
<path d="M0 34C0 15.2223 15.2223 0 34 0H146C164.778 0 180 15.2223 180 34V146C180 164.778 164.778 180 146 180H34C15.2223 180 0 164.778 0 146V34Z" fill="#191724"/>
<path d="M95.375 78.625V151.75H84.125V78.625L61.625 101.125L56 95.5L84.125 67.375V39.25L61.625 61.75L56 56.125L84.125 28H95.375L123.5 56.125L117.875 61.75L95.375 39.25V67.375L123.5 95.5L117.875 101.125L95.375 78.625Z" fill="#E0DEF4" stroke="#E0DEF4" stroke-width="4" stroke-linejoin="round"/>
</svg>
